<svg width="38" height="38" viewBox="0 0 38 38" fill="none" xmlns="http://www.w3.org/2000/svg">
<rect x="0.5" y="0.5" width="36.921" height="37" rx="7.5" fill="white"/>
<rect x="0.5" y="0.5" width="36.921" height="37" rx="7.5" stroke="#393939"/>
<path d="M11.6182 21.0298H6.86963V19.1133H11.6182C12.5378 19.1133 13.2824 18.9668 13.8521 18.6738C14.4217 18.3809 14.8368 17.974 15.0972 17.4531C15.3657 16.9323 15.5 16.3382 15.5 15.6709C15.5 15.0605 15.3657 14.4868 15.0972 13.9497C14.8368 13.4126 14.4217 12.9813 13.8521 12.6558C13.2824 12.3221 12.5378 12.1553 11.6182 12.1553H7.41895V28H5.06299V10.2266H11.6182C12.9609 10.2266 14.0962 10.4585 15.0239 10.9224C15.9517 11.3862 16.6556 12.0291 17.1357 12.8511C17.6159 13.6649 17.856 14.5967 17.856 15.6465C17.856 16.7858 17.6159 17.7583 17.1357 18.564C16.6556 19.3696 15.9517 19.984 15.0239 20.4072C14.0962 20.8223 12.9609 21.0298 11.6182 21.0298ZM26.5898 22.104L31.2896 10.2266H33.9995L27.7129 25.0337C27.5339 25.4487 27.3345 25.8516 27.1147 26.2422C26.895 26.6247 26.6265 26.9665 26.3091 27.2676C25.9917 27.5687 25.597 27.8088 25.125 27.9878C24.6611 28.1668 24.0833 28.2563 23.3916 28.2563C23.1963 28.2563 22.9644 28.2441 22.6958 28.2197C22.4272 28.2035 22.2523 28.1831 22.1709 28.1587L22.2441 26.2788C22.3337 26.2951 22.5086 26.3114 22.769 26.3276C23.0295 26.3358 23.2207 26.3398 23.3428 26.3398C23.8066 26.3398 24.1729 26.2463 24.4414 26.0591C24.71 25.8719 24.9256 25.6359 25.0884 25.3511C25.2593 25.0581 25.4139 24.7611 25.5522 24.46L26.5898 22.104ZM22.5981 10.2266L27.542 21.2983L28.1279 23.4834L26.1504 23.6299L19.9614 10.2266H22.5981Z" fill="black" fill-opacity="0.6"/>
</svg>
