<svg width="38" height="38" viewBox="0 0 38 38" fill="none" xmlns="http://www.w3.org/2000/svg">
<rect x="0.5" y="0.5" width="36.921" height="37" rx="7.5" fill="white"/>
<rect x="0.5" y="0.5" width="36.921" height="37" rx="7.5" stroke="#393939"/>
<path d="M18.5156 12.4375C14.8975 12.4375 11.9531 15.3818 11.9531 19C11.9531 22.6182 14.8975 25.5625 18.5156 25.5625C22.1338 25.5625 25.0781 22.6182 25.0781 19C25.0781 15.3818 22.1338 12.4375 18.5156 12.4375ZM18.5156 23.6875C15.9265 23.6875 13.8281 21.5891 13.8281 19C13.8281 16.4109 15.9265 14.3125 18.5156 14.3125C21.1048 14.3125 23.2031 16.4109 23.2031 19C23.2031 21.5891 21.1048 23.6875 18.5156 23.6875ZM18.5156 10.5625C19.0332 10.5625 19.4531 10.1426 19.4531 9.625V7.75C19.4531 7.23244 19.0332 6.8125 18.5156 6.8125C17.9981 6.8125 17.5781 7.23244 17.5781 7.75V9.625C17.5781 10.1426 17.9981 10.5625 18.5156 10.5625ZM18.5156 27.4375C17.9981 27.4375 17.5781 27.8574 17.5781 28.375V30.25C17.5781 30.7676 17.9981 31.1875 18.5156 31.1875C19.0332 31.1875 19.4531 30.7676 19.4531 30.25V28.375C19.4531 27.8574 19.0332 27.4375 18.5156 27.4375ZM25.8069 13.0332L27.1326 11.7075C27.4988 11.3413 27.4988 10.7481 27.1326 10.3819C26.7664 10.0156 26.1731 10.0156 25.8069 10.3819L24.4812 11.7075C24.115 12.0738 24.115 12.667 24.4812 13.0332C24.8474 13.3994 25.4407 13.3994 25.8069 13.0332ZM11.2243 24.9668L9.89865 26.2925C9.53244 26.6587 9.53244 27.2519 9.89865 27.6181C10.2649 27.9844 10.8581 27.9844 11.2243 27.6181L12.55 26.2925C12.9162 25.9251 12.9162 25.333 12.55 24.9668C12.1839 24.6006 11.5905 24.5993 11.2243 24.9668ZM10.0781 19C10.0781 18.4824 9.65818 18.0625 9.14062 18.0625H7.26562C6.74807 18.0625 6.32812 18.4824 6.32812 19C6.32812 19.5176 6.74807 19.9375 7.26562 19.9375H9.14062C9.65818 19.9375 10.0781 19.5176 10.0781 19ZM29.7656 18.0625H27.8906C27.3731 18.0625 26.9531 18.4824 26.9531 19C26.9531 19.5176 27.3731 19.9375 27.8906 19.9375H29.7656C30.2832 19.9375 30.7031 19.5176 30.7031 19C30.7031 18.4824 30.2832 18.0625 29.7656 18.0625ZM11.2231 13.0332C11.5894 13.3994 12.1826 13.3994 12.5488 13.0332C12.9151 12.667 12.9151 12.0738 12.5488 11.7075L11.2231 10.3819C10.8569 10.0156 10.2637 10.0156 9.89742 10.3819C9.53121 10.7481 9.53121 11.3413 9.89742 11.7075L11.2231 13.0332ZM25.8081 24.9655C25.4407 24.5993 24.8486 24.5993 24.4825 24.9655C24.1162 25.3318 24.115 25.925 24.4825 26.2912L25.8081 27.6169C26.1743 27.9831 26.7676 27.9831 27.1338 27.6169C27.5 27.2507 27.5 26.6574 27.1338 26.2912L25.8081 24.9655Z" fill="#98989A"/>
</svg>
